<?xml version="1.0" standalone="no"?>
<!DOCTYPE svg PUBLIC "-//W3C//DTD SVG 20010904//EN"
 "http://www.w3.org/TR/2001/REC-SVG-20010904/DTD/svg10.dtd">
<svg version="1.0" xmlns="http://www.w3.org/2000/svg"
 width="12px" height="12px" viewBox="0 0 512.000000 512.000000"
 preserveAspectRatio="xMidYMid meet">

<g transform="translate(0.000000,512.000000) scale(0.100000,-0.100000)"
fill="white" stroke="none">
<path d="M1515 4239 c-566 -131 -1031 -239 -1032 -239 -2 0 -3 -72 -3 -160 l0
-160 22 5 c13 3 481 111 1041 240 l1019 235 1021 -235 c562 -130 1030 -238
1040 -241 16 -5 17 7 17 155 0 143 -2 160 -17 165 -39 11 -2062 476 -2070 475
-4 0 -471 -108 -1038 -240z"/>
<path d="M1395 3509 c-255 -24 -608 -113 -837 -209 l-78 -33 0 -1233 0 -1234
904 0 904 0 16 -25 c78 -119 255 -167 386 -104 57 28 98 62 126 104 l16 25
904 0 904 0 0 1234 0 1233 -77 33 c-314 132 -740 221 -1053 220 -252 -1 -557
-55 -833 -149 l-119 -40 -81 30 c-101 38 -349 102 -477 123 -205 35 -420 44
-605 25z m518 -338 c135 -24 239 -49 385 -93 l102 -31 0 -889 c0 -488 -2 -888
-5 -888 -2 0 -51 13 -107 30 -481 138 -944 135 -1408 -10 -36 -11 -68 -20 -72
-20 -5 0 -8 400 -8 888 l0 889 118 36 c145 46 301 81 418 96 49 6 100 13 114
15 62 11 352 -4 463 -23z m1930 0 c142 -25 249 -51 380 -94 l97 -31 0 -889 c0
-842 -1 -889 -17 -884 -316 93 -461 118 -718 124 -277 7 -459 -16 -732 -93
-68 -19 -125 -34 -128 -34 -3 0 -5 400 -5 888 l0 889 88 26 c198 60 364 97
522 117 116 14 378 4 513 -19z"/>
</g>
</svg>
